<?xml version="1.0" encoding="UTF-8" standalone="no"?>
<!-- Created with Inkscape (http://www.inkscape.org/) -->

<svg
   xmlns:dc="http://purl.org/dc/elements/1.1/"
   xmlns:cc="http://creativecommons.org/ns#"
   xmlns:rdf="http://www.w3.org/1999/02/22-rdf-syntax-ns#"
   xmlns:svg="http://www.w3.org/2000/svg"
   xmlns="http://www.w3.org/2000/svg"
   xmlns:sodipodi="http://sodipodi.sourceforge.net/DTD/sodipodi-0.dtd"
   xmlns:inkscape="http://www.inkscape.org/namespaces/inkscape"
   width="210mm"
   height="297mm"
   viewBox="0 0 210 297"
   version="1.1"
   id="svg86"
   inkscape:version="0.92.1 r15371"
   sodipodi:docname="runner.svg">
  <defs
     id="defs80" />
  <sodipodi:namedview
     id="base"
     pagecolor="#ffffff"
     bordercolor="#666666"
     borderopacity="1.0"
     inkscape:pageopacity="0.0"
     inkscape:pageshadow="2"
     inkscape:zoom="0.35"
     inkscape:cx="400"
     inkscape:cy="560"
     inkscape:document-units="mm"
     inkscape:current-layer="layer1"
     showgrid="false"
     inkscape:window-width="1920"
     inkscape:window-height="986"
     inkscape:window-x="-11"
     inkscape:window-y="-11"
     inkscape:window-maximized="1" />
  <metadata
     id="metadata83">
    <rdf:RDF>
      <cc:Work
         rdf:about="">
        <dc:format>image/svg+xml</dc:format>
        <dc:type
           rdf:resource="http://purl.org/dc/dcmitype/StillImage" />
        <dc:title></dc:title>
      </cc:Work>
    </rdf:RDF>
  </metadata>
  <g
     inkscape:label="Layer 1"
     inkscape:groupmode="layer"
     id="layer1">
    <path
       inkscape:connector-curvature="0"
       style="fill:#ffffff;stroke-width:0.26458338"
       d="m 123.54033,79.759879 c -1.71436,-0.0011 -2.23176,0.118324 -3.75636,0.868164 -3.4099,1.677058 -5.74101,5.366011 -6.94997,10.99881 -0.20037,0.933522 -0.29258,0.92001 -5.07617,-0.734322 -6.15653,-2.12912 -10.74306,-2.515742 -14.24411,-1.200443 -2.38032,0.89426 -4.41404,3.141115 -7.79227,8.609293 -4.64952,7.525919 -5.00218,8.046149 -5.36196,7.897709 -0.18661,-0.077 -0.93483,-0.91679 -1.66243,-1.86603 -2.00067,-2.61015 -3.03133,-3.44542 -4.67104,-3.78582 -2.51573,-0.52227 -5.00337,0.67451 -6.25128,3.00757 -0.52917,0.98927 -0.54229,3.73036 -0.0227,4.71754 0.1991,0.37827 1.81054,2.57116 3.58119,4.87257 1.77064,2.3014 4.33048,5.66926 5.68854,7.48429 1.39001,1.85777 2.84922,3.51864 3.3388,3.80029 2.68438,1.54429 5.8996,0.79743 7.55459,-1.75493 1.27831,-1.97143 1.14091,-4.6939 -0.33951,-6.73757 -1.47211,-2.03218 -1.47116,-1.97326 -0.0532,-3.6804 0.70456,-0.84823 2.91383,-3.77444 4.90927,-6.50296 2.80437,-3.83462 3.7593,-4.96034 4.20698,-4.95784 1.76733,0.01 7.09279,3.1361 10.08361,5.91954 l 1.53376,1.4273 -0.18499,1.41852 c -0.55658,4.26899 -2.65658,11.57269 -4.64675,16.16128 -1.19364,2.75201 -2.98878,5.80366 -5.55884,9.44957 -2.59442,3.68046 -3.15526,4.98903 -3.15846,7.3706 -0.003,1.18621 -0.4141,3.99058 -1.07075,7.27604 -0.58764,2.94024 -1.47756,7.66765 -1.97712,10.50531 l -0.90847,5.15938 -1.26918,1.19062 c -0.69819,0.65484 -2.81512,2.57524 -4.70411,4.26744 -7.70604,6.90319 -15.77787,15.81089 -19.5094,21.52943 -5.48653,8.40812 -6.7777,15.57565 -3.28559,18.23919 0.5157,0.39335 1.27293,0.82193 1.68259,0.95239 1.27526,0.40624 3.81037,0.15761 5.18366,-0.50847 1.55581,-0.75465 2.44552,-1.88019 2.8515,-3.60651 1.94815,-8.28429 10.62759,-19.09893 24.77989,-30.87513 2.10106,-1.74829 4.16187,-3.64972 4.57904,-4.22558 1.44703,-1.99755 2.50735,-6.36286 3.97857,-16.37469 0.45825,-3.11846 0.95019,-5.74286 1.09296,-5.83171 0.14275,-0.0888 0.99396,-0.01 1.89135,0.17624 2.91317,0.60264 8.01471,1.16469 12.21116,1.34564 3.19484,0.13774 4.10464,0.25667 4.10464,0.53639 0,0.19767 -1.11625,1.81655 -2.48047,3.5972 -4.77245,6.22927 -8.44013,12.3562 -10.09499,16.86359 -1.74213,4.74506 -0.32721,8.44221 3.95583,10.33682 2.97003,1.31378 5.54276,0.77938 6.77426,-1.40714 0.49464,-0.87823 0.66794,-1.67489 0.79119,-3.63802 0.13213,-2.10534 0.29961,-2.80815 1.03042,-4.32842 1.97223,-4.10274 6.82821,-10.6231 13.48756,-18.10949 7.40547,-8.32522 7.70286,-8.79295 7.70286,-12.1109 0,-2.04745 -0.56194,-3.32529 -2.02932,-4.61367 -1.78777,-1.56967 -6.20999,-3.27644 -9.93738,-3.8354 -2.085,-0.31269 -2.09233,-0.25347 0.58652,-4.53515 4.06311,-6.49406 5.96969,-9.01869 9.28368,-12.29278 3.24691,-3.2078 3.67911,-3.92114 3.68247,-6.07457 0.003,-1.46027 -0.73253,-3.27797 -1.74771,-4.32325 -1.46028,-1.50361 -2.35254,-1.86496 -4.60076,-1.86396 -3.51533,0.002 -5.0651,1.34251 -8.76226,7.58144 -1.1903,2.00865 -2.30579,3.65198 -2.47941,3.65198 -0.18891,0 -0.86209,-2.13372 -1.67587,-5.31234 l -1.36014,-5.31234 1.94149,-1.89755 c 4.14316,-4.04959 5.85517,-10.226677 4.40541,-15.895158 -0.99351,-3.88466 -3.23996,-7.039409 -5.95985,-8.370549 -1.04494,-0.511418 -1.74042,-0.647896 -3.31089,-0.649054 z m -2.53989,46.432831 c 0.23879,0 0.60079,0.95443 1.06606,2.8112 0.38743,1.54614 0.87828,3.14727 1.0909,3.55843 0.21262,0.41114 0.38653,0.87305 0.38653,1.02577 0,0.3389 -6.51462,0.38901 -6.72309,0.0517 -0.0768,-0.12425 0.21807,-0.79016 0.65524,-1.4795 0.43718,-0.68937 1.32758,-2.31418 1.97872,-3.61064 0.65111,-1.29648 1.34678,-2.35696 1.54564,-2.35696 z"
       id="path50" />
    <path
       inkscape:connector-curvature="0"
       style="fill:#000000;stroke-width:0.26458338"
       d="m 63.4859,208.52111 c -2.74923,-2.74922 0.659,-11.07333 8.46743,-20.68051 2.9658,-3.64901 12.85406,-13.61047 17.45942,-17.58869 1.81901,-1.5713 3.38822,-2.92985 3.48714,-3.01901 0.0989,-0.0891 0.55194,-2.30522 1.00673,-4.9246 0.4548,-2.61937 1.41168,-7.73906 2.12641,-11.37708 0.90061,-4.58416 1.28264,-7.15463 1.24456,-8.37391 l -0.0549,-1.75934 3.09093,-4.59066 c 1.70002,-2.52487 3.57637,-5.54317 4.16967,-6.70734 3.12955,-6.14075 6.09619,-16.222 6.09619,-20.7161 v -1.84755 l -1.45286,-1.47626 c -1.78739,-1.81617 -4.72712,-4.02399 -7.01381,-5.26757 -1.97746,-1.075402 -5.29726,-2.310232 -6.211,-2.310232 -0.77633,0 -1.98731,1.34861 -5.07316,5.649762 -3.06551,4.27279 -5.51062,7.43511 -6.93072,8.96366 l -1.16313,1.25196 1.47025,1.92304 c 2.10058,2.74749 2.44893,3.92265 1.6314,5.50357 -0.43238,0.83613 -1.61269,1.57884 -2.50907,1.57884 -1.26676,0 -2.20737,-0.92316 -5.60278,-5.49889 -1.91312,-2.57816 -4.33482,-5.76431 -5.38156,-7.08033 -1.04673,-1.31603 -2.03956,-2.64766 -2.20628,-2.95917 -1.07352,-2.0059 0.9663,-4.62246 3.26709,-4.19083 1.00412,0.18837 1.91402,1.11769 5.00815,5.11503 1.15284,1.48937 2.17717,2.70794 2.27629,2.70794 0.24156,0 2.14359,-2.8818 4.93199,-7.47255 3.18357,-5.241342 5.84248,-9.165102 6.80869,-10.047602 1.27075,-1.16065 3.28667,-1.79443 5.70771,-1.79443 5.27493,0 13.12369,2.82088 19.44979,6.99035 3.08804,2.035292 3.85797,2.174382 5.25351,0.94908 2.53754,-2.22799 3.08139,-8.76531 0.95419,-11.46961 -1.5648,-1.98932 -3.64338,0.45413 -3.95408,4.64817 -0.18128,2.44711 -0.54733,3.19459 -1.79879,3.67314 -0.91857,0.35125 -2.27178,-0.31937 -2.69212,-1.33415 -0.29545,-0.71329 -0.28096,-1.18536 0.0952,-3.099751 0.82484,-4.198009 2.69789,-7.335639 5.28047,-8.845509 1.1967,-0.69964 1.56617,-0.78629 3.01221,-0.70646 1.30956,0.0723 1.87555,0.25158 2.75472,0.87255 2.38595,1.68526 3.94246,4.97452 4.13316,8.73428 0.15317,3.02006 -0.22811,4.87159 -1.54499,7.50265 -1.16161,2.320832 -2.779,4.002652 -4.6417,4.826612 -0.87866,0.38868 -1.1469,0.63795 -1.04231,0.96861 0.40637,1.28478 3.1436,11.9307 4.01816,15.62785 0.5548,2.34535 1.07186,4.26233 1.14903,4.25995 0.0772,-0.002 0.97375,-1.6312 1.9924,-3.6196 1.01864,-1.98841 2.66974,-4.99279 3.66909,-6.67641 3.01806,-5.08452 4.3186,-6.36556 6.46436,-6.36743 2.28156,-0.002 3.75717,1.51399 3.75717,3.85994 0,1.28235 -0.005,1.28995 -2.63751,3.80523 -3.04469,2.90937 -5.97818,6.74346 -9.5117,12.43182 -2.41487,3.88754 -3.22866,4.77286 -4.38725,4.77286 -0.8148,0 -1.91667,-0.77814 -2.32735,-1.64358 -0.22788,-0.48023 -1.14282,-3.78946 -2.03319,-7.35384 -2.25792,-9.03901 -2.14036,-8.63379 -2.37589,-8.18916 -0.11232,0.21204 -0.4159,1.2785 -0.67461,2.36991 -1.22918,5.18538 -4.68942,12.17857 -8.18228,16.53646 -0.46654,0.58208 -0.91778,1.1774 -1.00275,1.32292 -0.10153,0.17388 2.5804,0.26713 7.82392,0.27202 8.43741,0.008 11.82737,0.31401 16.44494,1.48512 2.74413,0.69596 5.61352,2.04896 6.61471,3.11904 0.69372,0.74143 0.7927,1.03913 0.78543,2.36209 -0.0112,2.0328 -0.62799,3.02193 -4.64328,7.4461 -8.03163,8.84951 -13.50207,15.99266 -15.99723,20.8887 -1.36062,2.66984 -1.70846,3.8619 -1.70846,5.85503 0,2.10358 -0.37309,3.10494 -1.23772,3.32194 -1.72814,0.43374 -4.57061,-1.08795 -5.38547,-2.88305 -0.66577,-1.46666 -0.64857,-2.10731 0.11702,-4.35823 1.78793,-5.25674 7.30497,-13.80768 13.99809,-21.69584 1.26372,-1.48935 2.29767,-2.76927 2.29767,-2.84427 0,-0.075 -2.64914,-0.13764 -5.88698,-0.1392 -7.66996,-0.004 -14.20944,-0.70111 -19.05721,-2.03241 -0.84071,-0.23088 -1.57415,-0.37341 -1.62986,-0.31674 -0.0557,0.0567 -0.53477,3.13912 -1.06458,6.8499 -1.5543,10.88627 -2.64199,15.73845 -3.88112,17.31375 -0.29143,0.3705 -2.21863,2.08885 -4.28267,3.81857 -5.27039,4.41674 -9.3688,8.24932 -12.69531,11.87192 -6.7598,7.36145 -11.3714,14.4165 -12.45237,19.05019 -0.20044,0.85922 -0.49487,1.80592 -0.65428,2.10378 -0.41586,0.77705 -1.90996,1.4043 -3.34503,1.4043 -1.00607,0 -1.37736,-0.14023 -1.98788,-0.75074 z"
       id="path48" />
  </g>
</svg>
